# xmcd
#
# Track frame offsets: 
#        150
#        22787
#        48109
#        67154
#        88576
#        106477
#        123864
#        140876
#        158989
#        177175
#        191845
#        210339
#
# Disc length: 3106 seconds
#
# Revision: 1
# Processed by: cddbd v1.5.2PL0 Copyright (c) Steve Scherf et al.
# Submitted via: ExactAudioCopy v1.1
#
DISCID=a30c200c
DTITLE=Stacy Mitchhart - Live My Life
DYEAR=2014
DGENRE=Blues
TTITLE0=I Drink Whiskey
TTITLE1=Come Together
TTITLE2=She Knows What To Do
TTITLE3=Voodoo Doll
TTITLE4=Soul Stroll
TTITLE5=Better Off Dead
TTITLE6=Live My Life
TTITLE7=I'm The Reason [She Walks That Way]
TTITLE8=Legend In His Own Mind
TTITLE9=Boogie Bar and BBQ
TTITLE10=Cat Bowl Blues
TTITLE11=Worried Mind Blues
EXTD=
EXTT0=
EXTT1=
EXTT2=
EXTT3=
EXTT4=
EXTT5=
EXTT6=
EXTT7=
EXTT8=
EXTT9=
EXTT10=
EXTT11=
PLAYORDER=
